{"title":"Focus 2015 720p HDCAM NEW AUDIO SOURCE x264 Pimp4003","uid":11742887,"size":1861632367,"categoryP":"video","categoryS":"movies","magnet":"?xt=urn:btih:db5a4091d06fabc7223b552448f1ee5752e16dd5&amp;dn=Focus+2015+720p+HDCAM+NEW+AUDIO+SOURCE+x264+Pimp4003&amp;tr=udp%3A%2F%2Ftracker.openbittorrent.com%3A80&amp;tr=udp%3A%2F%2Fopen.demonii.com%3A1337&amp;tr=udp%3A%2F%2Ftracker.coppersurfer.tk%3A6969&amp;tr=udp%3A%2F%2Fexodus.desync.com%3A6969","seeders":20,"leechers":0,"uploader":"shawnmurthy","files":1,"time":1425866601,"description":"NEW AUDIO SOURCE BY PIMP4003...I WILL HAVE NEW VIDEO SOURCE COMING UP BUT I GOT LOTS OF REQUESTS FOR THIS SO I USED THE VIDEO SOURCE BY ENGLISH...THIS VIDEO WAS BAD...MADE 15 DIFFERENT CUTS ON THE VIDEO AND BRIGHTENED THE ENTIRE VIDEO AND RAISED THE BITRATE TO IMPROVE ON THE QUALITY..OVERALL BETTER THEN OTHER...WILL HAVE TS OUT IN COUPLE DAYS ENJOY UNTIL THEN ...PIMP4003 OUT\n\nSCREENSHOTS GO HERE...[URL]http://pimp4003DOTnet/torrents.php?id=db5a4091d06fabc7223b552448f1ee5752e16dd5\n\nI am looking for: Pre-Retail Supplier Unreleased DVD/BluRay/Web-Dls/R5/CAM/TS If you have something to offer, please contact ME: &lt;a class=&quot;__cf_email__&quot; href=&quot;/cdn-cgi/l/email-protection&quot; data-cfemail=&quot;2050494d501410101360485553484d41494c0e434f4d0e&quot;&gt;[email&amp;#160;protected]&lt;/a&gt;&lt;script cf-hash='f9e31' type=&quot;text/javascript&quot;&gt;\n/* &lt;![CDATA[ */!function(){try{var t=&quot;currentScript&quot;in document?document.currentScript:function(){for(var t=document.getElementsByTagName(&quot;script&quot;),e=t.length;e--;)if(t[e].getAttribute(&quot;cf-hash&quot;))return t[e]}();if(t&amp;&amp;t.previousSibling){var e,r,n,i,c=t.previousSibling,a=c.getAttribute(&quot;data-cfemail&quot;);if(a){for(e=&quot;&quot;,r=parseInt(a.substr(0,2),16),n=2;a.length-n;n+=2)i=parseInt(a.substr(n,2),16)^r,e+=String.fromCharCode(i);e=document.createTextNode(e),c.parentNode.replaceChild(e,c)}}}catch(u){}}();/* ]]&gt; */&lt;/script&gt; WE CAN WORK OUT A GREAT DEAL THAT WORKS OUT FOR EVERY PARTY.\n &lt;a href=&quot;\nhttp://i.imgur.com/J3ny9bJ.jpg&quot; rel=&quot;nofollow&quot; target=&quot;_NEW&quot;&gt;\nhttp://i.imgur.com/J3ny9bJ.jpg&lt;/a&gt;\n &lt;a href=&quot;\nhttp://i.imgur.com/SpsuXOR.png&quot; rel=&quot;nofollow&quot; target=&quot;_NEW&quot;&gt;\nhttp://i.imgur.com/SpsuXOR.png&lt;/a&gt;\n\nPIMP THE ONE AND ONLY PIMPSTER.....PRESENTS\n\nfacebookDOTcom/OfficialPimp4003\n &lt;a href=&quot;\nhttp://i.imgur.com/RFgFHTp.jpg&quot; rel=&quot;nofollow&quot; target=&quot;_NEW&quot;&gt;\nhttp://i.imgur.com/RFgFHTp.jpg&lt;/a&gt;\n\nFocus 2015 720p HDCAM NEW AUDIO SOURCE x264 Pimp4003\n &lt;a href=&quot;\nhttp://www.imdb.com/title/tt2381941/&quot; rel=&quot;nofollow&quot; target=&quot;_NEW&quot;&gt;\nhttp://www.imdb.com/title/tt2381941/&lt;/a&gt;\n\nIn the midst of veteran con man Nicky's latest scheme, a woman from his past - now an accomplished femme fatale - shows up and throws his plans for a loop.\n\nDirectors: Glenn Ficarra, John Requa\nWriters: Glenn Ficarra, John Requa\nStars: Will Smith, Margot Robbie, Rodrigo Santoro | See full cast and crew Â»\n\nVideo\nID                                       : 1\nFormat                                   : MPEG-4 Visual\nFormat profile                           : Simple@L3\nFormat settings, BVOP                    : No\nFormat settings, QPel                    : No\nFormat settings, GMC                     : No warppoints\nFormat settings, Matrix                  : Default (H.263)\nCodec ID                                 : 20\nDuration                                 : 1h 40mn\nBit rate                                 : 2 360 Kbps\nWidth                                    : 1 280 pixels\nHeight                                   : 536 pixels\nDisplay aspect ratio                     : 2.40:1\nFrame rate mode                          : Variable\nFrame rate                               : 59.940 fps\nMinimum frame rate                       : 59.916 fps\nMaximum frame rate                       : 60.157 fps\nColor space                              : YUV\nChroma subsampling                       : 4:2:0\nBit depth                                : 8 bits\nScan type                                : Progressive\nCompression mode                         : Lossy\nBits/(Pixel*Frame)                       : 0.057\nStream size                              : 1.66 GiB (96%)\nWriting library                          : ZJMedia MPEG Encoder\n\nAudio\nID                                       : 2\nFormat                                   : AAC\nFormat/Info                              : Advanced Audio Codec\nFormat profile                           : LC\nCodec ID                                 : 40\nDuration                                 : 1h 40mn\nBit rate mode                            : Variable\nBit rate                                 : 100 Kbps\nChannel(s)                               : 2 channels\nChannel positions                        : Front: L R\nSampling rate                            : 48.0 KHz\nCompression mode                         : Lossy\nStream size                              : 72.2 MiB (4%)","torrent":{"xt":"urn:btih:db5a4091d06fabc7223b552448f1ee5752e16dd5","amp;dn":"Focus+2015+720p+HDCAM+NEW+AUDIO+SOURCE+x264+Pimp4003","amp;tr":["udp%3A%2F%2Ftracker.openbittorrent.com%3A80","udp%3A%2F%2Fopen.demonii.com%3A1337","udp%3A%2F%2Ftracker.coppersurfer.tk%3A6969","udp%3A%2F%2Fexodus.desync.com%3A6969"],"infoHash":"db5a4091d06fabc7223b552448f1ee5752e16dd5","infoHashBuffer":{"type":"Buffer","data":[219,90,64,145,208,111,171,199,34,59,85,36,72,241,238,87,82,225,109,213]},"announce":[],"urlList":[]}}